<svg width="102" height="102" viewBox="0 0 102 102" fill="none" xmlns="http://www.w3.org/2000/svg">
<path d="M1.58628 46.7716C1.67611 45.8038 2.02886 45.1194 2.64454 44.7186C3.26133 44.3059 4.04767 44.1438 5.00356 44.2326L6.1327 44.3374L6.0096 45.6637L4.80876 45.5522C4.23523 45.499 3.78204 45.5774 3.44919 45.7876C3.10551 45.9846 2.90982 46.3401 2.86214 46.8539C2.81556 47.3557 2.94249 47.7411 3.24292 48.01C3.5314 48.2778 3.96241 48.4383 4.53595 48.4916L11.1674 49.1071C11.741 49.1603 12.2001 49.0824 12.5449 48.8734C12.8778 48.6632 13.0675 48.3072 13.1141 47.8054C13.1618 47.2916 13.0408 46.9068 12.7512 46.6509C12.4508 46.382 12.0138 46.2209 11.4403 46.1677L9.80927 46.0163L9.93237 44.69L11.4917 44.8347C12.4476 44.9235 13.1907 45.2274 13.7209 45.7467C14.2523 46.254 14.4731 46.9915 14.3833 47.9594C14.2946 48.9152 13.9418 49.5996 13.325 50.0123C12.7093 50.4132 11.9236 50.5692 10.9677 50.4805L4.47955 49.8783C4.0016 49.8339 3.57644 49.7402 3.20407 49.5972C2.82085 49.4411 2.50237 49.2368 2.24862 48.9843C1.99598 48.7198 1.81405 48.4077 1.70283 48.0478C1.58077 47.675 1.54192 47.2495 1.58628 46.7716Z" fill="#181816"/>
<path d="M10.0764 39.9806L11.0583 41.0403L15.1148 42.2392L14.7169 43.5857L2.63357 40.0144L3.03151 38.668L8.86602 40.3924L3.98043 35.4573L4.38347 34.0936L8.987 38.7764L16.4974 37.5613L16.0893 38.9422L10.0764 39.9806Z" fill="#181816"/>
<path d="M13.1542 31.1939L17.4467 35.5315L16.7709 36.8234L5.60599 30.9835L6.18164 29.883L14.5075 34.2379L11.9464 31.6388L7.63326 27.1077L8.35907 25.7201L19.524 31.5599L18.94 32.6764L10.0559 28.0296L13.1542 31.1939Z" fill="#181816"/>
<path d="M25.2586 26.9845L23.9349 25.8738L20.6258 29.8173L21.9495 30.9281L21.0817 31.9622L18.8066 30.0531L19.3272 29.4326C19.2822 29.1128 19.1641 28.8336 18.9729 28.5948C18.7894 28.3468 18.5582 28.0902 18.2795 27.8249L11.2978 21.3319L14.5491 17.4573L23.2496 24.7583L23.8629 24.0275L26.138 25.9366L25.2586 26.9845ZM19.1451 26.7654C19.4789 27.077 19.7292 27.3574 19.8958 27.6069C20.0702 27.8472 20.1699 28.111 20.195 28.3984L22.3356 25.8476L14.614 19.3681L13.1098 21.1606L19.1451 26.7654Z" fill="#181816"/>
<path d="M24.1578 18.2471L24.3335 19.6811L26.9206 23.0277L25.8098 23.8864L18.1036 13.9178L19.2144 13.0591L22.9354 17.8725L21.8632 11.0114L22.9883 10.1417L23.9794 16.6332L30.7799 20.0443L29.6406 20.9251L24.1578 18.2471Z" fill="#181816"/>
<path d="M31.5299 16.6982L32.2019 19.1934L31.0362 19.7598L27.6993 7.37256L29.5288 6.48368L37.2046 16.7628L35.9418 17.3763L34.3955 15.3059L31.5299 16.6982ZM31.1647 15.5348L33.6904 14.3077L29.2335 8.38826L31.1647 15.5348Z" fill="#181816"/>
<path d="M44.3469 7.25926C44.6832 6.52592 45.2693 6.11722 46.105 6.03315C46.917 5.95149 47.5356 6.16665 47.961 6.67865C48.3851 7.17871 48.6423 7.87648 48.7323 8.77197L48.9791 11.2256C49.0752 12.1808 48.9198 12.9743 48.513 13.6062C48.105 14.2261 47.4234 14.5841 46.4683 14.6802C45.5131 14.7763 44.7738 14.5612 44.2505 14.0349C43.738 13.4955 43.4337 12.7482 43.3376 11.793L43.2529 10.9513L44.5603 10.8198L44.654 11.7511C44.7117 12.3242 44.8761 12.7599 45.1473 13.0583C45.4173 13.3447 45.8031 13.4627 46.3045 13.4122C46.806 13.3618 47.1605 13.1693 47.3681 12.8349C47.5745 12.4885 47.6488 12.0288 47.5912 11.4556L47.3462 9.01993C47.2885 8.44683 47.1247 8.01706 46.8547 7.73065C46.5835 7.4323 46.1971 7.30834 45.6957 7.35878C45.3136 7.39721 45.0086 7.54246 44.7807 7.79454C44.5516 8.03467 44.43 8.3846 44.4159 8.84431L44.4447 9.13087L43.1373 9.26237L42.7769 2.2613L47.7199 1.7641L47.846 3.01778L44.1566 3.38887L44.3469 7.25926Z" fill="#181816"/>
<path d="M54.1384 1.65364C54.7445 1.73824 55.1645 1.98466 55.3983 2.3929C55.644 2.8028 55.7245 3.31081 55.6399 3.91694L55.09 7.85675C55.0055 8.46287 54.7889 8.92941 54.4403 9.25637C54.1037 9.58499 53.6323 9.707 53.0262 9.6224C52.42 9.5378 51.9941 9.29055 51.7484 8.88066C51.5146 8.47242 51.44 7.96523 51.5246 7.35911L52.0745 3.4193C52.1591 2.81317 52.3697 2.3458 52.7064 2.01718C53.0549 1.69023 53.5323 1.56905 54.1384 1.65364ZM60.0292 2.54855L53.3672 14.3408L52.5293 14.2239L59.1914 2.4316L60.0292 2.54855ZM54.0239 2.4737C53.703 2.42891 53.4564 2.50352 53.2839 2.69755C53.1249 2.88134 53.0214 3.14557 52.9733 3.49023L52.406 7.55483C52.3579 7.89949 52.3851 8.18196 52.4877 8.40225C52.6021 8.6242 52.8197 8.75756 53.1406 8.80235C53.4496 8.84548 53.6895 8.77598 53.8604 8.59384C54.0312 8.4117 54.1406 8.14831 54.1887 7.80365L54.756 3.73905C54.8041 3.39439 54.771 3.11108 54.6566 2.88914C54.5438 2.6553 54.3329 2.51682 54.0239 2.4737ZM59.619 7.18031C60.237 7.26657 60.663 7.51382 60.8968 7.92206C61.1322 8.31841 61.2077 8.81965 61.1231 9.42577L60.5757 13.3478C60.4911 13.9539 60.2804 14.4213 59.9438 14.7499C59.6071 15.0785 59.1298 15.1997 58.5118 15.1134C57.9057 15.0288 57.4798 14.7816 57.2341 14.3717C57.0002 13.9634 56.9256 13.4562 57.0102 12.8501L57.5576 8.92814C57.6422 8.32201 57.852 7.86058 58.187 7.54385C58.5356 7.21689 59.0129 7.09571 59.619 7.18031ZM59.5046 8.00036C59.1956 7.95723 58.9557 8.02674 58.7848 8.20887C58.614 8.39101 58.5046 8.6544 58.4565 8.99906L57.8916 13.0458C57.8435 13.3905 57.8759 13.6797 57.9886 13.9136C58.103 14.1355 58.3148 14.2681 58.6238 14.3112C58.9328 14.3543 59.1727 14.2848 59.3435 14.1027C59.516 13.9087 59.6263 13.6393 59.6744 13.2947L60.2392 9.24788C60.2873 8.90322 60.2541 8.61992 60.1397 8.39797C60.0253 8.17603 59.8136 8.04349 59.5046 8.00036Z" fill="#181816"/>
<path d="M70.3245 13.4643L67.4586 18.3567L66.2471 17.647L72.6158 6.77505L73.8272 7.4847L70.9613 12.3771L73.6327 13.942L76.4986 9.04957L77.7101 9.75922L71.3414 20.6312L70.13 19.9216L72.9959 15.0292L70.3245 13.4643Z" fill="#181816"/>
<path d="M75.0237 20.2411L72.9677 21.8064L72.0027 20.9413L82.2095 13.1697L83.724 14.5274L77.109 25.5192L76.0636 24.582L77.396 22.3679L75.0237 20.2411ZM75.9628 19.4633L78.0536 21.3377L81.8491 14.9739L75.9628 19.4633Z" fill="#181816"/>
<path d="M93.8094 27.3875C94.2719 28.2561 94.3953 28.9857 94.1797 29.5764C93.9746 30.1614 93.459 30.6739 92.6328 31.1138L92.1085 31.393C91.5153 31.7089 90.9827 31.8702 90.5104 31.877C90.0488 31.8781 89.6141 31.6745 89.2063 31.2662C89.3457 31.8854 89.2681 32.4162 88.9734 32.8586C88.6844 33.3115 88.2328 33.7016 87.6184 34.0287L86.6811 34.5279C85.8443 34.9735 85.0882 35.111 84.4128 34.9405C83.748 34.7643 83.1843 34.2419 82.7218 33.3734L81.3597 30.8154L92.4811 24.8932L93.8094 27.3875ZM88.93 29.5984C89.1951 30.0962 89.4931 30.4134 89.8241 30.5498C90.1607 30.6968 90.6203 30.6153 91.2028 30.305L91.8542 29.9582C92.352 29.6931 92.6667 29.4032 92.7982 29.0884C92.9459 28.7786 92.9013 28.4013 92.6645 27.9564L92.013 26.7331L88.4224 28.6451L88.93 29.5984ZM83.8498 32.7727C84.318 33.6518 85.0552 33.8235 86.0614 33.2876L87.0464 32.7631C87.6714 32.4303 88.0326 32.0748 88.1303 31.6965C88.2442 31.3231 88.1573 30.8664 87.8696 30.3262L87.2943 29.2458L83.1476 31.454L83.8498 32.7727Z" fill="#181816"/>
<path d="M87.4794 37.6282L84.9068 37.8718L84.5442 36.6276L97.3158 35.4177L97.8849 37.3705L86.463 43.2116L86.0702 41.8637L88.3709 40.687L87.4794 37.6282ZM88.6876 37.4636L89.4733 40.1595L96.057 36.7596L88.6876 37.4636Z" fill="#181816"/>
<path d="M99.563 45.3358L88.2512 45.8163L88.3535 48.2261L99.6653 47.7456L99.7249 49.1484L88.4131 49.6288L88.5155 52.0387L99.8273 51.5582L99.8861 52.9429L87.2975 53.4777L86.9148 44.4678L99.5034 43.9331L99.563 45.3358Z" fill="#181816"/>
<path d="M96.4871 64.6311L85.7858 60.9338L86.2443 59.6068L98.1535 63.7214L96.2256 69.3017L84.3163 65.1871L84.7748 63.8601L95.4761 67.5574L96.4871 64.6311Z" fill="#181816"/>
<path d="M87.7377 73.6316L86.6482 72.9987L88.1942 70.3371L84.3185 68.086L82.42 71.3546L81.3149 70.7127L83.9186 66.23L94.814 72.5586L92.2102 77.0412L91.1051 76.3993L93.0037 73.1307L89.2837 70.97L87.7377 73.6316Z" fill="#181816"/>
<path d="M87.9522 82.7551C87.2955 83.5039 86.6132 83.8632 85.9055 83.8331C85.2067 83.8108 84.4965 83.4832 83.7747 82.8502L82.638 81.8532C81.8802 81.1886 81.4655 80.5057 81.3941 79.8046C81.3237 79.1204 81.6209 78.3994 82.2855 77.6416L83.1045 76.7078L79.3694 73.4321L80.2952 72.3765L89.7681 80.6846L87.9522 82.7551ZM83.2328 78.4724C82.8847 78.8694 82.7223 79.2457 82.7456 79.6013C82.7779 79.9648 83.0241 80.3483 83.4842 80.7519L84.7428 81.8557C85.1758 82.2355 85.5758 82.4346 85.9426 82.4531C86.3016 82.4806 86.6512 82.3004 86.9914 81.9124L87.8815 80.8975L84.0518 77.5387L83.2328 78.4724Z" fill="#181816"/>
<path d="M81.0312 89.398C80.2527 89.9998 79.5541 90.2441 78.9356 90.1307C78.3244 90.0268 77.7326 89.6046 77.1602 88.864L76.7969 88.3941C76.3859 87.8624 76.1374 87.3644 76.0514 86.9C75.9728 86.4451 76.1004 85.9824 76.4344 85.5119C75.8475 85.7532 75.3112 85.7659 74.8256 85.5497C74.3305 85.3409 73.8701 84.9612 73.4444 84.4105L72.7949 83.5703C72.2151 82.8203 71.9525 82.0981 72.0072 81.4036C72.0692 80.7186 72.4895 80.0752 73.268 79.4734L75.5608 77.701L83.267 87.6696L81.0312 89.398ZM78.0321 84.9593C77.5859 85.3042 77.3233 85.6513 77.2444 86.0005C77.156 86.357 77.3136 86.7964 77.7173 87.3185L78.1686 87.9024C78.5136 88.3486 78.8522 88.6101 79.1846 88.6869C79.5148 88.7805 79.8793 88.6732 80.278 88.3649L81.3746 87.5172L78.8866 84.2988L78.0321 84.9593ZM74.0496 80.4845C73.2616 81.0937 73.2162 81.8492 73.9135 82.7511L74.596 83.6341C75.029 84.1942 75.4402 84.4906 75.8295 84.5234C76.2167 84.5729 76.6524 84.4106 77.1365 84.0363L78.1049 83.2877L75.2316 79.5708L74.0496 80.4845Z" fill="#181816"/>
<path d="M71.0149 90.0439C70.0987 90.4641 69.3203 90.5372 68.6798 90.2633C68.0334 90.0052 67.5001 89.4181 67.0799 88.5018L66.4497 87.1274C66.0495 86.2548 65.9416 85.4726 66.126 84.7808C66.3045 84.1048 66.841 83.5618 67.7354 83.1516L70.2387 82.0036L75.491 93.4568L74.2148 94.042L72.1439 89.5262L71.0149 90.0439ZM68.0955 96.8482L62.8433 85.3951L64.1031 84.8173L69.3554 96.2704L68.0955 96.8482ZM68.2681 84.3133C67.7991 84.5284 67.5264 84.8118 67.4502 85.1637C67.363 85.5205 67.4394 85.9607 67.6795 86.4843L68.3773 88.0059C68.6324 88.5622 68.927 88.9023 69.2611 89.0264C69.6002 89.1613 70.0098 89.1187 70.4897 88.8986L71.6187 88.3809L69.4953 83.7505L68.2681 84.3133Z" fill="#181816"/>
<path d="M59.3606 101.788C59.2509 101.247 59.3357 100.789 59.6148 100.414C59.8821 100.042 60.3157 99.7948 60.9155 99.6733C61.5153 99.5518 62.0108 99.6105 62.4021 99.8496C62.7816 100.091 63.038 100.48 63.1711 101.016L62.3067 101.191C62.214 100.855 62.0605 100.641 61.8461 100.55C61.6317 100.459 61.3775 100.443 61.0835 100.502C60.7895 100.562 60.5615 100.676 60.3995 100.843C60.2258 101.013 60.1618 101.271 60.2073 101.617L59.3606 101.788ZM59.0865 92.5507L59.8046 86.2158L61.2336 85.9263L63.736 98.2753L62.5188 98.5219L60.6527 89.3131L60.2281 93.1091L59.4492 99.144L57.9143 99.455L55.4119 87.106L56.6468 86.8557L58.638 96.682L59.0865 92.5507Z" fill="#181816"/>
<path d="M44.4049 99.6569C43.4422 99.5226 42.7749 99.1386 42.4029 98.5051C42.019 97.87 41.8934 97.077 42.0261 96.1262L42.0709 95.8053C42.1605 95.1635 42.3675 94.6351 42.692 94.22C43.003 93.8151 43.4272 93.5532 43.9648 93.4344C43.4549 93.1814 43.1126 92.8126 42.9379 92.3278C42.7514 91.8413 42.7021 91.2832 42.79 90.6533L42.9268 89.6728C43.0595 88.722 43.3975 87.9937 43.9406 87.4879C44.4718 86.9805 45.2188 86.794 46.1815 86.9283C47.1322 87.061 47.7996 87.445 48.1835 88.0801C48.5555 88.7136 48.6751 89.5058 48.5424 90.4566L48.3732 91.6688L47.0718 91.4872L47.251 90.2036C47.3306 89.6331 47.274 89.1709 47.081 88.8168C46.8865 88.4746 46.5396 88.2687 46.0405 88.199C45.5294 88.1277 45.1386 88.2367 44.868 88.5261C44.5855 88.8138 44.4003 89.2726 44.3124 89.9025L44.1755 90.883C44.003 92.119 44.4516 92.8117 45.5212 92.961L46.1095 93.0431L45.9353 94.291L45.2757 94.1989C44.8122 94.1342 44.4231 94.2314 44.1082 94.4903C43.7815 94.7476 43.58 95.1496 43.5037 95.6963L43.4241 96.2668C43.3345 96.9086 43.3862 97.4065 43.5791 97.7606C43.7601 98.113 44.1062 98.3249 44.6172 98.3962C45.1164 98.4659 45.5072 98.3568 45.7897 98.0691C46.0705 97.7933 46.2507 97.3701 46.3303 96.7997L46.4473 95.9618L47.7309 96.1409L47.6214 96.9253C47.487 97.888 47.161 98.6179 46.6433 99.1152C46.1137 99.6107 45.3676 99.7913 44.4049 99.6569Z" fill="#181816"/>
<path d="M39.8157 88.4182L41.1291 86.1927L42.3492 86.6297L35.8297 97.6784L33.9148 96.9926L35.8928 84.3172L37.2146 84.7906L36.8163 87.3438L39.8157 88.4182ZM39.2396 89.4928L36.5961 88.546L35.4827 95.8716L39.2396 89.4928Z" fill="#181816"/>
<path d="M29.6618 87.1938L30.9415 86.5232L33.1595 82.9214L34.355 83.6576L27.748 94.3864L26.5525 93.6502L29.7428 88.4697L23.7017 91.8946L22.4909 91.149L28.2147 87.9303L29.006 80.3635L30.2321 81.1186L29.6618 87.1938Z" fill="#181816"/>
<path d="M25.5891 80.8454L27.6843 79.3329L28.627 80.2223L18.2258 87.7317L16.7463 86.3359L23.6388 75.5159L24.66 76.4794L23.2718 78.659L25.5891 80.8454ZM24.6306 81.5991L22.5882 79.6721L18.632 85.9373L24.6306 81.5991Z" fill="#181816"/>
<path d="M10.6022 79.4536C10.0448 78.6572 9.87141 77.9071 10.0819 77.2032C10.2854 76.4896 10.7805 75.8575 11.567 75.307L11.8325 75.1213C12.3634 74.7497 12.8913 74.5414 13.4163 74.4962C13.9245 74.4481 14.4052 74.5804 14.8584 74.893C14.6963 74.3474 14.7332 73.8455 14.9692 73.3875C15.1983 72.9195 15.5734 72.5032 16.0944 72.1386L16.9055 71.5709C17.692 71.0205 18.4554 70.7719 19.1957 70.825C19.9291 70.8684 20.5744 71.2882 21.1317 72.0846C21.6822 72.8711 21.8556 73.6212 21.652 74.3349C21.4416 75.0387 20.9431 75.6659 20.1566 76.2163L19.1537 76.9181L18.4003 75.8416L19.4621 75.0985C19.934 74.7682 20.2339 74.4119 20.3618 74.0295C20.4798 73.654 20.3943 73.2597 20.1053 72.8468C19.8094 72.4241 19.4634 72.2122 19.0672 72.2112C18.6642 72.2003 18.2021 72.3772 17.681 72.7419L16.8699 73.3095C15.8475 74.0251 15.6459 74.8253 16.2651 75.7101L16.6057 76.1968L15.5734 76.9192L15.1915 76.3736C14.9232 75.9902 14.587 75.7714 14.1829 75.7173C13.772 75.6533 13.3404 75.7796 12.8882 76.0961L12.4163 76.4264C11.8854 76.7979 11.556 77.1749 11.4282 77.5573C11.2934 77.9299 11.374 78.3275 11.6699 78.7503C11.9588 79.1632 12.3049 79.3751 12.7079 79.386C13.1012 79.4037 13.5337 79.2474 14.0056 78.9172L14.6988 78.4321L15.4419 79.4939L14.793 79.948C13.9966 80.5053 13.2401 80.7638 12.5235 80.7234C11.7999 80.6732 11.1595 80.2499 10.6022 79.4536Z" fill="#181816"/>
</svg>
